<svg width="52" height="52" viewBox="0 0 52 52" fill="none" xmlns="http://www.w3.org/2000/svg">
<g clip-path="url(#clip0_17_181)">
<path d="M19.5 41.1667C10.1833 44.2 10.1833 35.75 6.5 34.6667M32.5 45.5V37.9167C32.5 35.75 32.7167 34.8833 31.4167 33.5833C37.4833 32.9333 43.3333 30.55 43.3333 20.5833C43.3307 17.9941 42.3205 15.5075 40.5167 13.65C41.3627 11.4009 41.2848 8.90851 40.3 6.71665C40.3 6.71665 37.9167 6.06665 32.7167 9.53332C28.3124 8.38626 23.6877 8.38626 19.2833 9.53332C14.0833 6.06665 11.7 6.71665 11.7 6.71665C10.7152 8.90851 10.6373 11.4009 11.4833 13.65C9.67948 15.5075 8.6693 17.9941 8.66667 20.5833C8.66667 30.55 14.5167 32.9333 20.5833 33.5833C19.2833 34.8833 19.2833 36.1833 19.5 37.9167V45.5" stroke="#9E9E9E" stroke-width="3.25" stroke-linecap="round" stroke-linejoin="round"/>
</g>
<defs>
<clipPath id="clip0_17_181">
<rect width="52" height="52" fill="white"/>
</clipPath>
</defs>
</svg>
