<svg width="52" height="52" viewBox="0 0 52 52" fill="none" xmlns="http://www.w3.org/2000/svg">
<g clip-path="url(#clip0_17_184)">
<path d="M6.5 45.5L10.075 37.2667C7.33994 33.3841 6.11578 28.6369 6.63226 23.9159C7.14875 19.1949 9.37037 14.8246 12.8802 11.6253C16.39 8.42595 20.9468 6.61746 25.6953 6.53921C30.4439 6.46096 35.0577 8.11834 38.6711 11.2003C42.2844 14.2823 44.6488 18.5769 45.3206 23.2784C45.9923 27.9798 44.9252 32.7648 42.3196 36.7353C39.7139 40.7059 35.7488 43.589 31.1684 44.8437C26.5879 46.0984 21.707 45.6384 17.4417 43.55L6.5 45.5Z" stroke="#9E9E9E" stroke-width="3.25" stroke-linecap="round" stroke-linejoin="round"/>
<path d="M19.5 21.6667C19.5 21.954 19.6141 22.2296 19.8173 22.4327C20.0205 22.6359 20.296 22.75 20.5833 22.75C20.8707 22.75 21.1462 22.6359 21.3494 22.4327C21.5525 22.2296 21.6667 21.954 21.6667 21.6667V19.5C21.6667 19.2127 21.5525 18.9372 21.3494 18.734C21.1462 18.5308 20.8707 18.4167 20.5833 18.4167C20.296 18.4167 20.0205 18.5308 19.8173 18.734C19.6141 18.9372 19.5 19.2127 19.5 19.5V21.6667ZM19.5 21.6667C19.5 24.5399 20.6414 27.2954 22.673 29.327C24.7047 31.3587 27.4602 32.5 30.3333 32.5M30.3333 32.5H32.5C32.7873 32.5 33.0629 32.3859 33.266 32.1827C33.4692 31.9796 33.5833 31.704 33.5833 31.4167C33.5833 31.1294 33.4692 30.8538 33.266 30.6507C33.0629 30.4475 32.7873 30.3334 32.5 30.3334H30.3333C30.046 30.3334 29.7705 30.4475 29.5673 30.6507C29.3641 30.8538 29.25 31.1294 29.25 31.4167C29.25 31.704 29.3641 31.9796 29.5673 32.1827C29.7705 32.3859 30.046 32.5 30.3333 32.5Z" stroke="#9E9E9E" stroke-width="3.25" stroke-linecap="round" stroke-linejoin="round"/>
</g>
<defs>
<clipPath id="clip0_17_184">
<rect width="52" height="52" fill="white"/>
</clipPath>
</defs>
</svg>
