<svg width="52" height="52" viewBox="0 0 52 52" fill="none" xmlns="http://www.w3.org/2000/svg">
<g clip-path="url(#clip0_81_2)">
<path d="M11.5158 4.5499C13.2297 4.30507 15.6325 4.86407 18.7373 6.6429L19.3267 6.99174L19.6733 7.2084L20.5335 7.02857C23.8134 6.39479 27.1785 6.33614 30.4785 6.85524L31.4665 7.02857L32.3245 7.2084L32.6733 6.99174C35.6742 5.17174 38.0618 4.45674 39.871 4.5044L40.2263 4.52173L40.5448 4.55857L40.7095 4.5889L40.8178 4.61273L41.1298 4.71457C41.6407 4.92572 42.0515 5.32413 42.2782 5.82824C43.1648 7.80359 43.4634 9.99258 43.1383 12.1332L43.0365 12.7117L42.9368 13.1364L43.2033 13.4896C44.447 15.2121 45.2183 17.2336 45.435 19.3547L45.4848 19.9939L45.5 20.5832C45.5 28.9357 41.9055 33.3297 35.438 35.0566L34.9072 35.1887L34.6212 35.2516L34.6515 35.6004L34.6688 35.9406L34.6775 36.7314L34.6732 37.1929L34.6667 45.4999C34.6666 46.0306 34.4718 46.5428 34.1191 46.9394C33.7665 47.336 33.2805 47.5893 32.7535 47.6514L32.5 47.6666H19.5C18.9693 47.6665 18.4571 47.4717 18.0605 47.119C17.6639 46.7664 17.4106 46.2804 17.3485 45.7534L17.3333 45.4999V43.9096C13.3943 44.4729 10.7683 42.9909 8.42833 39.8406L7.26916 38.1809C6.6625 37.3229 6.28333 36.9264 5.993 36.7856L5.889 36.7444C5.35255 36.5701 4.90524 36.1934 4.64212 35.6945C4.379 35.1956 4.32082 34.6137 4.47995 34.0726C4.63907 33.5314 5.00296 33.0737 5.49427 32.7966C5.98558 32.5195 6.56558 32.4449 7.111 32.5887C8.502 32.9961 9.438 33.8194 10.5127 35.2732L11.6783 36.9394C13.325 39.2772 14.625 40.1006 17.3312 39.5199L17.3333 38.0509L17.2943 37.6869C17.2303 37.094 17.2151 36.4969 17.2488 35.9016L17.2857 35.5007L17.3268 35.2407L17.0928 35.1887C10.6448 33.6504 6.903 29.6139 6.53033 21.8876L6.50866 21.2159L6.5 20.5832C6.50251 18.2358 7.1859 15.9395 8.46733 13.9727L8.79666 13.4917L9.061 13.1386L8.9635 12.7139C8.57288 10.8106 8.68111 8.83867 9.27766 6.98957L9.49433 6.37857L9.724 5.8304C9.95019 5.32669 10.3602 4.92835 10.8702 4.71674L11.1822 4.6149L11.5158 4.5499Z" fill="#61B7B2"/>
</g>
<defs>
<clipPath id="clip0_81_2">
<rect width="52" height="52" fill="white"/>
</clipPath>
</defs>
</svg>
