<svg width="52" height="52" viewBox="0 0 52 52" fill="none" xmlns="http://www.w3.org/2000/svg">
<g clip-path="url(#clip0_16_52)">
<path d="M25.9999 6.5C26.2859 6.5 26.5698 6.5 26.8514 6.5C24.068 9.08637 22.2789 12.5663 21.7951 16.335C21.3112 20.1036 22.1633 23.9227 24.2032 27.1282C26.2431 30.3338 29.3417 32.7233 32.9606 33.8812C36.5794 35.0391 40.4896 34.8923 44.0114 33.4663C42.6567 36.7261 40.4425 39.5569 37.605 41.6569C34.7675 43.7569 31.4132 45.0473 27.8999 45.3903C24.3866 45.7334 20.846 45.1164 17.6559 43.605C14.4657 42.0937 11.7457 39.7447 9.78588 36.8086C7.82607 33.8726 6.70003 30.4596 6.52785 26.9338C6.35568 23.4079 7.14383 19.9015 8.80824 16.7884C10.4726 13.6754 12.9509 11.0726 15.9786 9.25759C19.0063 7.44259 22.4699 6.48352 25.9999 6.48267V6.5Z" stroke="#9E9E9E" stroke-width="3.25" stroke-linecap="round" stroke-linejoin="round"/>
</g>
<defs>
<clipPath id="clip0_16_52">
<rect width="52" height="52" fill="white"/>
</clipPath>
</defs>
</svg>
